<?xml version="1.0" encoding="UTF-8" standalone="no"?>
<!-- Created with Inkscape (http://www.inkscape.org/) -->

<svg
   width="64"
   height="64"
   viewBox="0 0 16.93312 16.93312"
   version="1.1"
   id="svg1488"
   sodipodi:docname="stax-app-accumulate-64.svg"
   inkscape:export-filename="/home/bunfield/drawing.png"
   inkscape:export-xdpi="96"
   inkscape:export-ydpi="96"
   inkscape:version="1.1.2 (0a00cf5339, 2022-02-04)"
   xmlns:inkscape="http://www.inkscape.org/namespaces/inkscape"
   xmlns:sodipodi="http://sodipodi.sourceforge.net/DTD/sodipodi-0.dtd"
   xmlns="http://www.w3.org/2000/svg"
   xmlns:svg="http://www.w3.org/2000/svg">
  <sodipodi:namedview
     id="namedview1490"
     pagecolor="#ffffff"
     bordercolor="#666666"
     borderopacity="1.0"
     inkscape:pageshadow="2"
     inkscape:pageopacity="0.0"
     inkscape:pagecheckerboard="0"
     inkscape:document-units="px"
     showgrid="true"
     units="px"
     objecttolerance="10000"
     guidetolerance="10000"
     fit-margin-left="6"
     fit-margin-top="6"
     fit-margin-right="6"
     fit-margin-bottom="6"
     inkscape:zoom="13.961359"
     inkscape:cx="31.730436"
     inkscape:cy="28.292375"
     inkscape:window-width="1920"
     inkscape:window-height="935"
     inkscape:window-x="0"
     inkscape:window-y="32"
     inkscape:window-maximized="1"
     inkscape:current-layer="layer1">
    <inkscape:grid
       type="xygrid"
       id="grid1585"
       empspacing="1"
       snapvisiblegridlinesonly="false"
       originx="-0.13535207"
       originy="-0.013952633" />
  </sodipodi:namedview>
  <defs
     id="defs1485" />
  <g
     inkscape:label="Layer 1"
     inkscape:groupmode="layer"
     id="layer1"
     transform="translate(-0.1353538,-0.0139528)">
    <path
       class="shp0"
       d="m 8.602001,1.6014328 c -0.6894823,0 -1.2507575,0.5368745 -1.2507575,1.1963781 0,0.6595034 0.5612752,1.1963786 1.2507575,1.1963786 0.6894805,0 1.2507574,-0.5368752 1.2507574,-1.1963786 0,-0.6595036 -0.5612769,-1.1963781 -1.2507574,-1.1963781 z M 2.9735936,4.2932835 c -0.6894848,0 -1.2507598,0.5368746 -1.2507598,1.1963785 0,0.6595033 0.561275,1.1963784 1.2507598,1.1963784 0.6894789,0 1.250754,-0.5368751 1.250754,-1.1963784 0,-0.6595039 -0.5612751,-1.1963785 -1.250754,-1.1963785 z m 11.2568154,0 c -0.689479,0 -1.250756,0.5368746 -1.250756,1.1963785 0,0.6595033 0.561279,1.1963784 1.250756,1.1963784 0.689482,0 1.250758,-0.5368751 1.250758,-1.1963784 0,-0.6595039 -0.561276,-1.1963785 -1.250758,-1.1963785 z M 8.2893121,4.56546 v 2.1474987 c 0.101624,-0.016447 0.206375,-0.026914 0.3126889,-0.026914 0.1063147,0 0.2110656,0.010468 0.3126901,0.026914 V 4.56546 C 8.8130666,4.581908 8.7083157,4.592375 8.602001,4.592375 8.4956871,4.592375 8.3909361,4.581907 8.2893121,4.56546 Z m 4.1744039,1.5208954 -2.398328,1.2741428 c 0.129766,0.1555292 0.232952,0.3319949 0.30331,0.5234156 L 12.767024,6.609771 C 12.635695,6.4542416 12.53407,6.2777761 12.463716,6.0863554 Z m -7.7249939,0.00599 C 4.6683685,6.2822605 4.565178,6.4587262 4.4338482,6.6142555 L 6.8274915,7.9033528 C 6.8962794,7.7119319 6.9963437,7.5339709 7.1245415,7.3769464 Z M 8.602001,7.2842379 c -0.6894823,0 -1.2507575,0.5368745 -1.2507575,1.1963782 0,0.6595023 0.5612752,1.1963768 1.2507575,1.1963768 0.6894805,0 1.2507574,-0.5368745 1.2507574,-1.1963768 0,-0.6595037 -0.5612769,-1.1963782 -1.2507574,-1.1963782 z M 6.8321773,9.0683259 4.4354142,10.349942 c 0.1313297,0.154035 0.2329543,0.331999 0.304874,0.521923 L 7.1323591,9.5932355 C 7.0041556,9.4377074 6.9009709,9.2597465 6.8321773,9.0683259 Z m 3.5318297,0.023921 c -0.03752,0.095711 -0.07975,0.1869345 -0.13133,0.2736713 -0.0014,0 -0.0014,0.00148 -0.0014,0.00148 -0.0516,0.08674 -0.111003,0.1689886 -0.175104,0.2452566 l 2.406121,1.2651662 c 0.07034,-0.189925 0.17354,-0.367884 0.301744,-0.523416 z M 8.2893121,10.248246 v 2.1475 c 0.101624,-0.01643 0.206375,-0.02691 0.3126889,-0.02691 0.1063147,0 0.2110656,0.01046 0.3126901,0.02691 v -2.1475 c -0.1016245,0.01644 -0.2063754,0.02691 -0.3126901,0.02691 -0.1063139,0 -0.2110649,-0.01046 -0.3126889,-0.02691 z m -5.3157185,0.02691 c -0.6894848,0 -1.2507598,0.536878 -1.2507598,1.196379 0,0.659503 0.561275,1.196379 1.2507598,1.196379 0.6894789,0 1.250754,-0.536876 1.250754,-1.196379 0,-0.659501 -0.5612751,-1.196379 -1.250754,-1.196379 z m 11.2568154,0 c -0.689479,0 -1.250756,0.536878 -1.250756,1.196379 0,0.659503 0.561279,1.196379 1.250756,1.196379 0.689482,0 1.250758,-0.536876 1.250758,-1.196379 0,-0.659501 -0.561276,-1.196379 -1.250758,-1.196379 z m -5.628408,2.691853 c -0.6894823,0 -1.2507575,0.536876 -1.2507575,1.196379 0,0.659504 0.5612752,1.196382 1.2507575,1.196382 0.6894805,0 1.2507574,-0.536878 1.2507574,-1.196382 0,-0.659503 -0.5612769,-1.196379 -1.2507574,-1.196379 z"
       id="path1461"
       style="fill:#00a6fb;stroke-width:0.152908"
       inkscape:transform-center-x="-0.025686739"
       inkscape:transform-center-y="1.4269734" />
    <path
       style="fill:#000000;stroke-width:0.0716263"
       d="M 10.135117,25.143635 C 8.5310867,24.918036 7.2204781,24.003518 6.5120297,22.615514 6.1570832,21.920097 6.030803,21.309306 6.0715718,20.485112 c 0.057137,-1.155089 0.4774529,-2.084616 1.3117217,-2.900863 1.9145973,-1.873241 4.9947845,-1.812032 6.8165655,0.135458 0.831924,0.889329 1.201432,1.822789 1.193916,3.016097 -0.0054,0.852487 -0.213361,1.553346 -0.680483,2.29298 -0.917656,1.453007 -2.870368,2.355046 -4.578175,2.114851 z"
       id="path1775"
       transform="matrix(0.26458,0,0,0.26458,0.1353538,0.0139528)" />
    <path
       style="fill:#000000;stroke-width:0.0716263"
       d="m 20.753711,27.338922 c -2.41291,-1.304236 -4.387109,-2.396546 -4.387109,-2.427353 0,-0.03081 0.113965,-0.205318 0.253256,-0.387799 0.139291,-0.182481 0.372972,-0.584783 0.519291,-0.894004 0.146319,-0.309221 0.283363,-0.563094 0.304543,-0.564164 0.03702,-0.0019 8.817273,4.711453 8.86422,4.758399 0.01263,0.01263 -0.121343,0.238138 -0.297721,0.501127 -0.176376,0.262988 -0.411022,0.685524 -0.521434,0.938967 -0.110412,0.253443 -0.233866,0.457512 -0.274343,0.453486 -0.04048,-0.004 -2.047793,-1.074422 -4.460703,-2.378659 z"
       id="path1814"
       transform="matrix(0.26458,0,0,0.26458,0.1353538,0.0139528)" />
    <path
       style="fill:#000000;stroke-width:0.0716263"
       d="m 30.835108,36.349323 c -1.320334,-0.3592 -2.518051,-1.324909 -3.063532,-2.470099 -0.340294,-0.714418 -0.446155,-1.167418 -0.446155,-1.909189 0,-2.529966 2.369502,-4.640391 4.984379,-4.439396 1.238043,0.09516 2.140465,0.511617 3.046248,1.405796 0.723422,0.714154 1.054944,1.320603 1.24852,2.283901 0.424792,2.113903 -0.947877,4.329266 -3.119288,5.03425 -0.616944,0.200301 -2.071071,0.252282 -2.650172,0.09474 z"
       id="path1853"
       transform="matrix(0.26458,0,0,0.26458,0.1353538,0.0139528)" />
    <path
       style="fill:#000000;stroke-width:0.0716263"
       d="m 30.835108,21.273001 v -3.975258 h 1.14602 1.14602 v 3.975258 3.975258 h -1.14602 -1.14602 z"
       id="path1892"
       transform="matrix(0.26458,0,0,0.26458,0.1353538,0.0139528)" />
    <path
       style="fill:#000000;stroke-width:0.0716263"
       d="M 31.435913,14.964695 C 30.191466,14.806686 29.177963,14.264061 28.367566,13.321915 27.151654,11.908328 26.986091,9.8742353 27.9566,8.2728338 28.506768,7.3650213 29.486739,6.6131155 30.584416,6.2565792 31.052081,6.1046769 31.302275,6.0694083 31.945315,6.06474 c 0.919289,-0.00667 1.451107,0.1129049 2.256227,0.5073101 0.752835,0.3687923 1.656601,1.2734086 2.021201,2.0231019 0.272371,0.5600536 0.486607,1.421816 0.484475,1.948796 -0.0022,0.540252 -0.202379,1.292601 -0.509991,1.916598 -0.839169,1.702273 -2.830073,2.749361 -4.761314,2.504149 z"
       id="path1931"
       transform="matrix(0.26458,0,0,0.26458,0.1353538,0.0139528)" />
    <path
       style="fill:#000000;stroke-width:0.0716263"
       d="m 38.500617,29.240201 c -0.09766,-0.225846 -0.337657,-0.650263 -0.533321,-0.943149 -0.195664,-0.292886 -0.325266,-0.544732 -0.288003,-0.559658 0.03726,-0.01492 2.049995,-1.083272 4.47274,-2.374103 l 4.404991,-2.346967 0.286721,0.580855 c 0.157696,0.319469 0.408878,0.747264 0.55818,0.950655 l 0.271459,0.3698 -0.164211,0.08794 c -2.663021,1.42616 -8.754557,4.647369 -8.786817,4.646476 -0.02429,-6.73e-4 -0.124077,-0.186005 -0.221739,-0.411851 z"
       id="path1970"
       transform="matrix(0.26458,0,0,0.26458,0.1353538,0.0139528)" />
    <path
       style="fill:#000000;stroke-width:0.0716263"
       d="m 52.681119,25.143635 c -1.60403,-0.225599 -2.914638,-1.140117 -3.623087,-2.528121 -0.354946,-0.695417 -0.481226,-1.306208 -0.440458,-2.130402 0.05714,-1.155089 0.477453,-2.084616 1.311722,-2.900863 1.914597,-1.873241 4.994785,-1.812032 6.816566,0.135458 0.831923,0.889329 1.201432,1.822789 1.193916,3.016097 -0.0054,0.852487 -0.213361,1.553346 -0.680483,2.29298 -0.917657,1.453007 -2.870369,2.355046 -4.578176,2.114851 z"
       id="path2009"
       transform="matrix(0.26458,0,0,0.26458,0.1353538,0.0139528)" />
    <path
       style="fill:#000000;stroke-width:0.0716263"
       d="m 52.05192,47.63435 c -0.835681,-0.225704 -1.479382,-0.604226 -2.133583,-1.254633 -0.892004,-0.886832 -1.319915,-1.885887 -1.319915,-3.081639 0,-2.367347 1.951108,-4.324771 4.440829,-4.455205 2.212055,-0.115887 4.2156,1.308405 4.806149,3.416624 0.13663,0.487761 0.117558,1.672265 -0.03517,2.184602 -0.210105,0.704786 -0.608445,1.381448 -1.115176,1.894354 -0.925489,0.936765 -1.940535,1.371425 -3.297667,1.412117 -0.652463,0.01956 -0.932171,-0.0046 -1.345462,-0.11622 z"
       id="path2048"
       transform="matrix(0.26458,0,0,0.26458,0.1353538,0.0139528)" />
    <path
       style="fill:#000000;stroke-width:0.0716263"
       d="m 42.40275,38.813919 c -2.245483,-1.184198 -4.251025,-2.239102 -4.456759,-2.344232 l -0.374062,-0.191146 0.328916,-0.465489 c 0.180903,-0.256019 0.425243,-0.674996 0.542976,-0.93106 0.117733,-0.256064 0.222464,-0.474778 0.232735,-0.486031 0.03172,-0.03475 8.881896,4.636186 8.902725,4.698674 0.01078,0.03233 -0.118114,0.268936 -0.286427,0.525786 -0.168313,0.256849 -0.400587,0.665629 -0.516165,0.908401 -0.115578,0.242771 -0.22839,0.440679 -0.250692,0.439794 -0.0223,-8.85e-4 -1.877764,-0.970499 -4.123247,-2.154697 z"
       id="path2087"
       transform="matrix(0.26458,0,0,0.26458,0.1353538,0.0139528)" />
    <path
       style="fill:#000000;stroke-width:0.0716263"
       d="m 30.835108,42.783615 v -3.997991 h 1.14602 1.14602 v 3.997991 c 0,3.996418 -5.7e-5,3.997972 -0.146666,3.95144 -0.187852,-0.05962 -1.813974,-0.05863 -2.002547,0.0012 -0.141521,0.04492 -0.142827,0.0088 -0.142827,-3.952658 z"
       id="path2126"
       transform="matrix(0.26458,0,0,0.26458,0.1353538,0.0139528)" />
    <path
       style="fill:#000000;stroke-width:0.0716263"
       d="m 17.104771,40.336662 c -0.165226,-0.343548 -0.409868,-0.768611 -0.543649,-0.944583 l -0.243237,-0.31995 4.470058,-2.388641 c 2.458531,-1.313752 4.478774,-2.377402 4.489429,-2.363667 0.01065,0.01374 0.141815,0.275954 0.291468,0.582707 0.149653,0.306753 0.391951,0.724324 0.538439,0.927937 l 0.266344,0.370205 -4.412594,2.358057 c -2.426926,1.296931 -4.444825,2.368071 -4.48422,2.380312 -0.03939,0.01224 -0.206811,-0.258829 -0.372038,-0.602377 z"
       id="path2165"
       transform="matrix(0.26458,0,0,0.26458,0.1353538,0.0139528)" />
    <path
       style="fill:#000000;stroke-width:0.0716263"
       d="M 9.5059178,47.63435 C 8.6702364,47.408646 8.026535,47.030124 7.3723342,46.379717 6.4803308,45.492885 6.0524195,44.49383 6.0524195,43.298078 c 0,-2.367347 1.9511078,-4.324771 4.4408285,-4.455205 2.212056,-0.115887 4.215601,1.308405 4.80615,3.416624 0.13663,0.487761 0.117558,1.672265 -0.03518,2.184602 -0.210104,0.704786 -0.608444,1.381448 -1.115176,1.894354 -0.925488,0.936765 -1.940534,1.371425 -3.297667,1.412117 -0.652462,0.01956 -0.9321702,-0.0046 -1.3454612,-0.11622 z"
       id="path2204"
       transform="matrix(0.26458,0,0,0.26458,0.1353538,0.0139528)" />
    <path
       style="fill:#000000;stroke-width:0.0716263"
       d="m 30.778919,57.805686 c -0.836443,-0.226561 -1.479692,-0.604939 -2.133584,-1.255039 -0.892003,-0.886832 -1.319914,-1.885887 -1.319914,-3.081639 0,-1.145185 0.42439,-2.165215 1.251388,-3.007735 0.593267,-0.604403 1.152384,-0.957448 1.929391,-1.21828 2.206497,-0.740697 4.752162,0.308351 5.735933,2.363732 0.131989,0.275761 0.280608,0.646427 0.330266,0.823702 0.13663,0.487761 0.117558,1.672265 -0.03518,2.184601 -0.428671,1.437959 -1.596716,2.631108 -3.051943,3.117537 -0.685994,0.229304 -1.998797,0.264773 -2.706361,0.07312 z"
       id="path2243"
       transform="matrix(0.26458,0,0,0.26458,0.1353538,0.0139528)"
       inkscape:export-filename="/home/bunfield/Downloads/stax-app-accumulate-64.png"
       inkscape:export-xdpi="96"
       inkscape:export-ydpi="96" />
  </g>
</svg>
